<svg xmlns="http://www.w3.org/2000/svg" fill="#aebdfd" viewBox="10 30 316 90">  <rect x="10" y="70" width="6" height="10" rx="3"></rect>  <rect x="20" y="65" width="6" height="20" rx="3"></rect>  <rect x="30" y="60" width="6" height="30" rx="3"></rect>  <rect x="40" y="50" width="6" height="50" rx="3"></rect>  <rect x="50" y="45" width="6" height="60" rx="3"></rect>  <rect x="60" y="40" width="6" height="70" rx="3"></rect>  <rect x="70" y="45" width="6" height="60" rx="3"></rect>  <rect x="80" y="50" width="6" height="50" rx="3"></rect>  <rect x="90" y="60" width="6" height="30" rx="3"></rect>  <rect x="100" y="50" width="6" height="50" rx="3"></rect>  <rect x="110" y="40" width="6" height="70" rx="3"></rect>  <rect x="120" y="35" width="6" height="80" rx="3"></rect>  <rect x="130" y="30" width="6" height="90" rx="3"></rect>  <rect x="140" y="35" width="6" height="80" rx="3"></rect>  <rect x="150" y="40" width="6" height="70" rx="3"></rect>  <rect x="160" y="45" width="6" height="60" rx="3"></rect>  <rect x="170" y="50" width="6" height="50" rx="3"></rect>  <rect x="180" y="60" width="6" height="30" rx="3"></rect>  <rect x="190" y="65" width="6" height="20" rx="3"></rect>  <rect x="200" y="60" width="6" height="30" rx="3"></rect>  <rect x="210" y="50" width="6" height="50" rx="3"></rect>  <rect x="220" y="45" width="6" height="60" rx="3"></rect>  <rect x="230" y="40" width="6" height="70" rx="3"></rect>  <rect x="240" y="35" width="6" height="80" rx="3"></rect>  <rect x="250" y="30" width="6" height="90" rx="3"></rect>  <rect x="260" y="35" width="6" height="80" rx="3"></rect>  <rect x="270" y="40" width="6" height="70" rx="3"></rect>  <rect x="280" y="45" width="6" height="60" rx="3"></rect>  <rect x="290" y="50" width="6" height="50" rx="3"></rect>  <rect x="300" y="60" width="6" height="30" rx="3"></rect>  <rect x="310" y="65" width="6" height="20" rx="3"></rect>  <rect x="320" y="70" width="6" height="10" rx="3"></rect></svg>