<?xml version="1.0" encoding="UTF-8"?><svg id="uuid-ce7efda3-4f94-48da-91c8-0032b08a5855" xmlns="http://www.w3.org/2000/svg" viewBox="0 0 398.35 142.63"><g id="uuid-1d401089-b4cd-4f00-9ca1-f47e023f07ef"><polyline points="9.77 3.82 9.77 127.33 398.35 127.33" style="fill:none; stroke:#cbcbcb; stroke-miterlimit:10; stroke-width:.5px;"/><polyline points="9.77 103.69 17.79 97.05 25.13 103.69 27.49 97.05 66.83 115.44 85.22 29.32 94.92 45.97 115.28 15.32 123.53 37.79 133.74 29.32 167.95 77.64 183.37 65.38 191.47 70.49 204.06 63.33 226.71 65.38 250.67 50.56 260.94 54.14 278.82 48.01 295.16 97.56 306.91 41.8 325.93 41.8 328.88 3.82 341.34 70.49 362.59 70.56 378.51 10.06 376.89 43.55 386.45 65.57 394.13 78.15" style="fill:none; stroke:#aebdfd; stroke-miterlimit:10;"/><text transform="translate(9.77 140.98)" style="fill:#cbcbcb; font-family:DMSans-Regular, &apos;DM Sans&apos;; font-size:6.37px;"><tspan x="0" y="0">12:00</tspan></text><text transform="translate(0 115.44)" style="fill:#cbcbcb; font-family:DMSans-Regular, &apos;DM Sans&apos;; font-size:6.37px;"><tspan x="0" y="0">1</tspan></text><text transform="translate(0 92.96)" style="fill:#cbcbcb; font-family:DMSans-Regular, &apos;DM Sans&apos;; font-size:6.37px;"><tspan x="0" y="0">2</tspan></text><text transform="translate(0 70.49)" style="fill:#cbcbcb; font-family:DMSans-Regular, &apos;DM Sans&apos;; font-size:6.37px;"><tspan x="0" y="0">3</tspan></text><text transform="translate(0 48.01)" style="fill:#cbcbcb; font-family:DMSans-Regular, &apos;DM Sans&apos;; font-size:6.37px;"><tspan x="0" y="0">4</tspan></text><text transform="translate(0 25.53)" style="fill:#cbcbcb; font-family:DMSans-Regular, &apos;DM Sans&apos;; font-size:6.37px;"><tspan x="0" y="0">5</tspan></text><text transform="translate(62.43 140.98)" style="fill:#cbcbcb; font-family:DMSans-Regular, &apos;DM Sans&apos;; font-size:6.37px;"><tspan x="0" y="0">13:00</tspan></text><text transform="translate(115.09 140.98)" style="fill:#cbcbcb; font-family:DMSans-Regular, &apos;DM Sans&apos;; font-size:6.37px;"><tspan x="0" y="0">14:00</tspan></text><text transform="translate(167.75 140.98)" style="fill:#cbcbcb; font-family:DMSans-Regular, &apos;DM Sans&apos;; font-size:6.37px;"><tspan x="0" y="0">15:00</tspan></text><text transform="translate(220.42 140.98)" style="fill:#cbcbcb; font-family:DMSans-Regular, &apos;DM Sans&apos;; font-size:6.37px;"><tspan x="0" y="0">16:00</tspan></text><text transform="translate(273.08 140.98)" style="fill:#cbcbcb; font-family:DMSans-Regular, &apos;DM Sans&apos;; font-size:6.37px;"><tspan x="0" y="0">17:00</tspan></text><text transform="translate(325.74 140.98)" style="fill:#cbcbcb; font-family:DMSans-Regular, &apos;DM Sans&apos;; font-size:6.37px;"><tspan x="0" y="0">18:00</tspan></text><text transform="translate(378.4 140.98)" style="fill:#cbcbcb; font-family:DMSans-Regular, &apos;DM Sans&apos;; font-size:6.37px;"><tspan x="0" y="0">19:00</tspan></text></g></svg>