<svg width="1359" height="906" viewBox="0 0 1359 906" fill="none" xmlns="http://www.w3.org/2000/svg">
<path fill-rule="evenodd" clip-rule="evenodd" d="M254.817 345.265C254.817 346.821 256.107 348.111 257.704 348.111V348.131H467.113C468.71 348.131 470 346.841 470 345.285V153.834C469.959 107.026 453.23 68.9403 419.404 42.3419C388.301 17.8935 341.615 3.13022 279.184 0.22262C277.627 0.140716 276.337 1.36928 276.337 2.90498V75.124C276.337 76.5369 277.464 77.7245 278.897 77.8064C333.711 81.3692 375.339 97.7501 375.339 154.858H257.704C256.107 154.858 254.817 156.148 254.817 157.704V345.265ZM0 157.715C0 156.159 1.28999 154.869 2.88712 154.869V154.848H212.296C213.893 154.848 215.183 156.138 215.183 157.694V349.166C215.142 395.974 198.413 434.06 164.587 460.658C133.483 485.106 86.798 499.87 24.3665 502.777C22.8103 502.859 21.5203 501.631 21.5203 500.095V427.876C21.5203 426.463 22.6465 425.275 24.0798 425.194C78.8942 421.631 120.522 405.25 120.522 348.142H2.88712C1.28999 348.142 0 346.852 0 345.296V157.715Z" fill="#000C02"/>
<path fill-rule="evenodd" clip-rule="evenodd" d="M1260 115L140 240V795H240V906L405.124 795H1110L1260 115Z" fill="#00B764"/>
<path fill-rule="evenodd" clip-rule="evenodd" d="M411.065 534.728C411.065 560.216 433.817 570.728 458.009 570.728C483.641 570.728 504.377 559.64 504.377 538.328C504.377 512.853 480.802 509.135 460.823 505.984C446.132 503.667 433.385 501.657 433.385 491.528C433.385 481.304 444.617 475.976 458.009 475.976C471.401 475.976 482.489 480.584 482.489 491.384H502.361C502.361 470.936 482.057 458.984 458.009 458.984C434.249 458.984 414.233 469.496 414.233 490.664C414.233 514.792 436.482 518.435 456.043 521.638C471.389 524.15 485.081 526.392 485.081 538.04C485.081 548.12 472.121 553.304 458.009 553.304C443.753 553.304 429.065 547.256 429.065 534.728H411.065ZM968.248 570.584C935.992 570.584 914.392 548.984 914.392 516.296C914.392 482.312 935.272 458.984 967.24 458.984C989.272 458.984 1007.27 470.072 1014.62 489.944L996.328 494.84C991.288 483.608 980.488 477.416 967.672 477.416C946.648 477.416 933.4 492.824 933.4 515.432C933.4 537.464 947.224 552.296 967.96 552.296C982.648 552.296 994.744 543.368 999.928 527.384L1018.07 531.704C1010.15 556.472 991.72 570.584 968.248 570.584ZM1117.17 534.728C1117.17 560.216 1139.92 570.728 1164.11 570.728C1189.74 570.728 1210.48 559.64 1210.48 538.328C1210.48 512.853 1186.9 509.135 1166.92 505.984C1152.23 503.667 1139.49 501.657 1139.49 491.528C1139.49 481.304 1150.72 475.976 1164.11 475.976C1177.5 475.976 1188.59 480.584 1188.59 491.384H1208.46C1208.46 470.936 1188.16 458.984 1164.11 458.984C1140.35 458.984 1120.33 469.496 1120.33 490.664C1120.33 514.792 1142.58 518.435 1162.14 521.638C1177.49 524.15 1191.18 526.392 1191.18 538.04C1191.18 548.12 1178.22 553.304 1164.11 553.304C1149.85 553.304 1135.17 547.256 1135.17 534.728H1117.17ZM1029.21 460.712V569H1108.55V551.864H1047.79V522.488H1102.51V505.64H1047.79V477.416H1107.26V460.712H1029.21ZM846.313 524.36L862.441 479.864L878.713 524.36H846.313ZM850.345 460.712L809.737 569H830.041L839.977 541.784H885.049L894.985 569H914.569L874.825 460.712H850.345ZM728.334 569V460.712H747.198V550.712H808.83V569H728.334ZM697.456 492.824C697.456 502.328 690.688 508.232 679.6 508.232H650.368V477.56H679.6C690.688 477.56 697.456 483.176 697.456 492.824ZM631.792 460.712V569H650.368V525.368H679.744C702.064 525.368 716.608 511.832 716.608 492.248C716.608 473.528 702.208 460.712 679.744 460.712H631.792ZM505.286 477.416V460.712H594.854V477.416H559.862V569H540.854V477.416H505.286ZM323.109 569V460.712H401.157V477.416H341.685V505.64H396.405V522.488H341.685V551.864H402.453V569H323.109ZM220.52 460.712V569H272.216C294.392 569 308.792 556.328 308.792 537.608C308.792 525.224 302.456 515.72 290.648 511.688C299.576 506.792 304.328 498.44 304.328 487.784C304.328 470.648 292.232 460.712 271.064 460.712H220.52ZM290.36 537.032C290.36 546.824 282.44 551.864 268.472 551.864H238.664V521.336H267.32C282.152 521.336 290.36 526.52 290.36 537.032ZM285.896 490.088C285.896 498.584 278.984 504.2 266.168 504.2H238.952V477.704H267.608C279.272 477.704 285.896 481.448 285.896 490.088ZM814.084 713V604.712H832.516V650.936L881.044 604.712H906.82L864.196 646.904L909.412 713H886.372L850.66 660.728L832.66 677.288V713H814.084ZM777.133 636.104C777.133 645.32 771.085 651.656 759.565 651.656H725.581V621.416H760.717C772.669 621.416 777.133 627.32 777.133 636.104ZM706.573 604.712V713H725.581V669.08H756.109C768.781 669.08 776.269 674.696 776.269 687.8V713H795.997V687.8C795.997 671.672 789.517 664.184 783.037 660.44C791.389 654.392 796.141 645.176 796.141 635.816C796.141 617.816 785.053 604.712 763.885 604.712H706.573ZM638.862 715.592C607.182 715.592 585.006 691.832 585.006 659.288C585.006 627.176 606.03 602.264 638.862 602.264C671.406 602.264 692.142 627.32 692.142 659.288C692.142 691.832 670.254 715.592 638.862 715.592ZM604.158 659C604.158 681.752 618.702 697.592 638.862 697.592C658.734 697.592 673.278 681.752 673.278 659C673.278 636.824 659.886 620.408 638.862 620.408C617.55 620.408 604.158 636.824 604.158 659ZM448.743 604.712L475.815 713H494.103L515.415 633.8L536.295 713H554.439L581.511 604.712H562.503L544.791 681.896L524.487 604.712H505.767L485.895 682.184L467.895 604.712H448.743ZM361.33 715.592C329.65 715.592 307.474 691.832 307.474 659.288C307.474 627.176 328.498 602.264 361.33 602.264C393.874 602.264 414.61 627.32 414.61 659.288C414.61 691.832 392.722 715.592 361.33 715.592ZM326.626 659C326.626 681.752 341.17 697.592 361.33 697.592C381.202 697.592 395.746 681.752 395.746 659C395.746 636.824 382.354 620.408 361.33 620.408C340.018 620.408 326.626 636.824 326.626 659ZM218.16 604.712V621.416H253.728V713H272.736V621.416H307.728V604.712H218.16Z" fill="#000C02"/>
<path fill-rule="evenodd" clip-rule="evenodd" d="M851.413 347.721H825.275C824.991 347.721 824.85 347.579 824.85 347.295V323.71C824.85 323.426 824.991 323.284 825.275 323.284H839.833C839.833 320.023 838.793 317.66 836.76 316.195C834.728 314.729 831.798 313.879 827.969 313.689C827.685 313.689 827.544 313.548 827.544 313.264V304.425C827.544 304.142 827.685 304 827.969 304C835.579 304.284 841.44 306.08 845.552 309.294C849.759 312.602 851.838 317.282 851.838 323.284V347.295C851.838 347.579 851.696 347.721 851.413 347.721ZM778.293 341.293V365.871H790.866C793.04 365.871 794.789 365.209 796.065 363.886C797.341 362.562 798.003 360.719 798.003 358.45V348.713C798.003 346.397 797.341 344.601 796.065 343.278C794.789 341.954 793.04 341.293 790.866 341.293H778.293ZM815.16 367.194C813.269 370.314 810.434 372.63 806.605 374.142C810.197 375.371 812.844 377.593 814.451 380.759C816.058 383.973 816.862 388.227 816.862 393.568V422.448C816.862 423.015 816.578 423.298 816.011 423.298H797.719C797.152 423.298 796.868 423.015 796.868 422.448V393.568C796.868 389.834 796.065 387.093 794.505 385.344C792.898 383.595 790.487 382.697 787.132 382.697H778.293V422.4C778.293 422.968 778.009 423.251 777.442 423.251H759.15C758.583 423.251 758.3 422.968 758.3 422.4V324.135C758.3 323.568 758.583 323.284 759.15 323.284H792.851C800.555 323.284 806.652 325.506 811.19 329.949C815.727 334.345 817.996 340.347 817.996 347.863V355C817.996 360.01 817.051 364.122 815.16 367.194ZM706.591 356.181V390.449C706.591 396.357 707.489 400.658 709.38 403.447C711.223 406.236 714.106 407.606 718.029 407.606C721.952 407.606 724.836 406.188 726.679 403.447C728.522 400.705 729.468 396.357 729.468 390.449V356.181C729.468 350.273 728.522 345.925 726.679 343.183C724.836 340.395 721.952 339.024 718.029 339.024C714.106 339.024 711.223 340.442 709.38 343.183C707.536 345.925 706.591 350.273 706.591 356.181ZM741.52 416.303C736.037 422.117 728.239 425 718.029 425C707.82 425 699.974 422.117 694.538 416.303C689.055 410.489 686.314 402.171 686.314 391.3V355.283C686.314 344.412 689.055 336.093 694.538 330.28C700.021 324.466 707.82 321.583 718.029 321.583C728.191 321.583 736.037 324.466 741.52 330.28C747.003 336.093 749.745 344.412 749.745 355.283V391.3C749.745 402.171 747.003 410.489 741.52 416.303ZM635.173 356.181V390.449C635.173 396.357 636.071 400.658 637.961 403.447C639.805 406.236 642.688 407.606 646.611 407.606C650.534 407.606 653.417 406.188 655.261 403.447C657.104 400.705 658.049 396.357 658.049 390.449V356.181C658.049 350.273 657.104 345.925 655.261 343.183C653.417 340.395 650.534 339.024 646.611 339.024C642.688 339.024 639.805 340.442 637.961 343.183C636.118 345.925 635.173 350.273 635.173 356.181ZM670.055 416.303C664.572 422.117 656.773 425 646.564 425C636.402 425 628.555 422.117 623.073 416.303C617.59 410.489 614.848 402.171 614.848 391.3V355.283C614.848 344.412 617.59 336.093 623.073 330.28C628.555 324.466 636.354 321.583 646.564 321.583C656.726 321.583 664.572 324.466 670.055 330.28C675.537 336.093 678.279 344.412 678.279 355.283V391.3C678.279 402.171 675.537 410.489 670.055 416.303ZM566.023 341.293V405.29V405.337H573.16C577.65 405.337 581.053 403.825 583.37 400.753C585.686 397.728 586.867 393.332 586.867 387.613V359.017C586.867 353.298 585.686 348.95 583.37 345.877C581.053 342.805 577.65 341.293 573.16 341.293H566.023ZM574.011 423.298H546.88C546.313 423.298 546.03 423.015 546.03 422.448V324.182C546.03 323.615 546.313 323.332 546.88 323.332H574.011C584.693 323.332 592.87 326.309 598.589 332.312C604.308 338.315 607.144 346.917 607.144 358.166V388.464C607.144 399.713 604.308 408.315 598.589 414.318C592.87 420.321 584.693 423.298 574.011 423.298ZM538.278 348.855V356.134C538.278 356.701 537.995 356.985 537.333 356.985H519.325C518.757 356.985 518.474 356.701 518.474 356.134V348.855C518.474 345.736 517.623 343.23 515.921 341.434C514.22 339.638 511.857 338.74 508.926 338.74C506.185 338.74 503.963 339.544 502.356 341.151C500.749 342.758 499.946 344.979 499.946 347.721C499.946 351.218 501.175 354.196 503.585 356.559C505.996 358.923 509.871 361.759 515.212 365.114C520.175 368.139 524.24 370.975 527.36 373.528C530.527 376.127 533.221 379.436 535.442 383.548C537.664 387.613 538.798 392.576 538.798 398.389C538.798 406.897 536.293 413.42 531.236 418.052C526.225 422.684 518.994 425 509.682 425C500.229 425 492.998 422.637 487.893 417.863C482.788 413.089 480.236 406.33 480.236 397.586V389.22C480.236 388.653 480.52 388.369 481.087 388.369H499.095C499.662 388.369 499.946 388.653 499.946 389.22V397.491C499.946 400.658 500.844 403.163 502.593 405.007C504.389 406.85 506.752 407.795 509.682 407.795C512.471 407.795 514.693 406.945 516.347 405.29C518.001 403.589 518.852 401.367 518.852 398.626C518.852 395.034 517.529 391.961 514.976 389.504C512.424 387.046 508.359 384.162 502.829 380.807C498.102 377.876 494.132 375.088 491.06 372.535C487.987 369.936 485.341 366.627 483.214 362.515C481.087 358.45 480 353.582 480 347.957C480 339.496 482.505 332.974 487.515 328.389C492.525 323.804 499.709 321.536 509.021 321.536C518.427 321.536 525.658 323.899 530.716 328.625C535.773 333.352 538.278 340.111 538.278 348.855ZM473.997 348.855V356.134C473.997 356.701 473.713 356.985 473.052 356.985H455.043C454.476 356.985 454.193 356.701 454.193 356.134V348.855C454.193 345.736 453.342 343.23 451.64 341.434C449.939 339.638 447.575 338.74 444.645 338.74C441.903 338.74 439.682 339.544 438.075 341.151C436.468 342.758 435.664 344.979 435.664 347.721C435.664 351.218 436.893 354.196 439.304 356.559C441.714 358.923 445.59 361.759 450.931 365.114C455.894 368.139 459.959 370.975 463.078 373.528C466.245 376.127 468.939 379.436 471.161 383.548C473.382 387.613 474.517 392.576 474.517 398.389C474.517 406.897 472.012 413.42 466.954 418.052C461.944 422.684 454.712 425 445.401 425C435.948 425 428.716 422.637 423.612 417.863C418.507 413.089 415.955 406.33 415.955 397.586V389.22C415.955 388.653 416.238 388.369 416.805 388.369H434.814C435.381 388.369 435.664 388.653 435.664 389.22V397.491C435.664 400.658 436.562 403.163 438.311 405.007C440.107 406.85 442.471 407.795 445.401 407.795C448.19 407.795 450.411 406.945 452.066 405.29C453.72 403.589 454.571 401.367 454.571 398.626C454.571 395.034 453.247 391.961 450.695 389.504C448.143 387.046 444.078 384.162 438.548 380.807C433.821 377.876 429.851 375.088 426.778 372.535C423.706 369.936 421.059 366.627 418.932 362.515C416.805 358.45 415.718 353.582 415.718 347.957C415.718 339.496 418.223 332.974 423.234 328.389C428.244 323.804 435.381 321.536 444.739 321.536C454.145 321.536 461.377 323.899 466.434 328.625C471.492 333.352 473.997 340.111 473.997 348.855ZM379.702 353.865L372.139 390.165H387.264L379.702 353.865ZM368.736 406.425L365.428 422.448C365.333 423.015 365.002 423.298 364.435 423.251H346.427C345.765 423.251 345.529 422.92 345.718 422.259L369.445 324.135C369.634 323.568 369.965 323.284 370.438 323.284H389.297C389.864 323.284 390.195 323.568 390.289 324.135L414.017 422.306C414.206 422.968 413.97 423.298 413.308 423.298H395.016C394.543 423.298 394.212 423.015 394.023 422.448L390.715 406.425H368.736ZM340.282 423.298H292.875C292.308 423.298 292.024 423.015 292.024 422.4V324.135C292.024 323.568 292.308 323.284 292.875 323.284H311.167C311.734 323.284 312.018 323.568 312.018 324.135V405.29H340.282C340.85 405.29 341.133 405.574 341.133 406.141V422.448C341.133 423.015 340.85 423.298 340.282 423.298ZM275.434 416.918C269.904 422.306 262.2 425 252.274 425C242.112 425 234.266 422.117 228.783 416.303C223.3 410.489 220.559 402.171 220.559 391.3V355.283C220.559 344.223 223.253 335.857 228.641 330.091C234.029 324.371 241.875 321.536 252.274 321.536C262.2 321.536 269.857 324.23 275.292 329.618C280.728 335.006 283.422 342.569 283.422 352.4V355.236C283.422 355.803 283.138 356.087 282.571 356.087H264.279C263.712 356.087 263.429 355.803 263.429 355.236V353.251C263.429 343.75 259.695 338.977 252.274 338.977C248.351 338.977 245.468 340.395 243.624 343.136C241.781 345.877 240.836 350.226 240.836 356.134V390.402C240.836 396.31 241.781 400.658 243.624 403.4C245.468 406.188 248.351 407.559 252.274 407.559C259.695 407.559 263.429 402.832 263.429 393.285V382.697H252.841C252.274 382.697 251.99 382.414 251.99 381.846V366.721C251.99 366.154 252.274 365.871 252.841 365.871H282.855C283.422 365.871 283.705 366.154 283.705 366.721V394.136C283.705 403.92 280.964 411.529 275.434 416.918ZM187.425 323.284H213.563C213.847 323.284 213.989 323.426 213.989 323.71V347.721C213.989 353.723 211.909 358.355 207.702 361.711C203.59 364.973 197.729 366.721 190.12 367.005C189.836 367.005 189.694 366.863 189.694 366.58V357.741C189.694 357.457 189.836 357.316 190.12 357.316C193.948 357.127 196.879 356.276 198.911 354.811C200.943 353.298 201.983 350.982 201.983 347.721H187.425C187.142 347.721 187 347.579 187 347.295V323.71C187 323.426 187.142 323.284 187.425 323.284ZM918.25 348.855V356.134C918.25 356.701 917.966 356.985 917.304 356.985H899.296C898.729 356.985 898.445 356.701 898.445 356.134V348.855C898.445 345.736 897.595 343.231 895.893 341.434C894.192 339.638 891.828 338.74 888.898 338.74C886.156 338.74 883.935 339.544 882.328 341.151C880.721 342.758 879.917 344.979 879.917 347.721C879.917 351.218 881.146 354.196 883.557 356.559C885.967 358.923 889.843 361.759 895.184 365.115C900.147 368.14 904.212 370.975 907.331 373.528C910.498 376.127 913.192 379.436 915.414 383.548C917.635 387.613 918.77 392.576 918.77 398.39C918.77 406.897 916.265 413.42 911.207 418.052C906.197 422.684 898.965 425 889.654 425C880.201 425 872.969 422.637 867.865 417.863C862.76 413.089 860.208 406.33 860.208 397.586V389.22C860.208 388.653 860.491 388.369 861.058 388.369H879.067C879.634 388.369 879.917 388.653 879.917 389.22V397.492C879.917 400.658 880.815 403.163 882.564 405.007C884.36 406.85 886.724 407.795 889.654 407.795C892.443 407.795 894.664 406.945 896.318 405.29C897.973 403.589 898.824 401.367 898.824 398.626C898.824 395.034 897.5 391.961 894.948 389.504C892.395 387.046 888.331 384.163 882.8 380.807C878.074 377.876 874.104 375.088 871.031 372.535C867.959 369.936 865.312 366.627 863.185 362.515C861.058 358.45 859.971 353.582 859.971 347.957C859.971 339.497 862.476 332.974 867.486 328.389C872.497 323.804 879.634 321.536 888.992 321.536C898.398 321.536 905.63 323.899 910.687 328.625C915.745 333.352 918.25 340.111 918.25 348.855Z" fill="#000C02"/>
<path fill-rule="evenodd" clip-rule="evenodd" d="M1298.9 339.946C1321.93 319.396 1333.36 297.52 1328.21 278.308C1316.92 236.164 1230.14 222.8 1134.38 248.458C1038.63 274.116 970.154 329.08 981.447 371.224C992.739 413.368 1079.52 426.732 1175.28 401.074C1195.98 395.526 1215.41 388.607 1233.04 380.744L1332.48 398.114L1298.9 339.946Z" fill="#FFE126"/>
<path d="M1247.31 335.304C1242.95 336.472 1238.94 336.737 1235.26 336.1C1231.63 335.385 1228.51 333.887 1225.88 331.606C1223.31 329.247 1221.39 326.194 1220.12 322.445L1231.47 319.404C1232.48 322.184 1234.17 324.162 1236.56 325.338C1239 326.437 1241.73 326.581 1244.76 325.77C1247.3 325.089 1249.33 323.96 1250.86 322.384C1252.38 320.808 1253.35 318.861 1253.77 316.544C1254.25 314.21 1254.11 311.651 1253.37 308.866C1252.42 305.356 1250.63 302.786 1247.99 301.159C1245.33 299.47 1242.31 299.081 1238.92 299.989C1236.44 300.654 1234.31 301.906 1232.53 303.745C1230.74 305.523 1229.48 307.482 1228.75 309.622L1218.22 312.445L1214.08 275.211L1250.67 265.406L1253.23 274.94L1225.99 282.239L1227.61 298.834C1228.84 296.624 1230.46 294.697 1232.49 293.051C1234.57 291.39 1236.89 290.218 1239.43 289.537C1243.3 288.499 1246.97 288.491 1250.42 289.512C1253.91 290.456 1256.94 292.306 1259.49 295.06C1262.09 297.737 1263.97 301.224 1265.12 305.522C1266.4 310.304 1266.51 314.718 1265.46 318.764C1264.4 322.81 1262.31 326.258 1259.18 329.108C1256.05 331.957 1252.09 334.023 1247.31 335.304Z" fill="#000C02"/>
<path d="M1168.02 355.481L1165.87 347.491C1172.44 339.309 1177.61 332.343 1181.39 326.594C1185.22 320.769 1187.79 315.831 1189.1 311.781C1190.48 307.714 1190.78 304.228 1190 301.322C1189.2 298.356 1187.6 296.255 1185.19 295.019C1182.83 293.706 1180.04 293.479 1176.84 294.338C1173.33 295.279 1170.71 297.147 1169 299.943C1167.34 302.722 1167.01 306.087 1168 310.038L1156.56 313.103C1155.56 308.377 1155.64 304.104 1156.83 300.284C1157.99 296.404 1160.1 293.145 1163.16 290.51C1166.2 287.814 1169.99 285.857 1174.53 284.641C1178.95 283.457 1183 283.214 1186.69 283.912C1190.44 284.594 1193.62 286.144 1196.21 288.563C1198.85 290.905 1200.68 293.983 1201.7 297.796C1202.77 301.792 1202.84 305.925 1201.91 310.197C1200.96 314.408 1198.9 319.049 1195.72 324.119C1192.59 329.173 1188.2 334.924 1182.53 341.374L1211.4 333.637L1213.96 343.171L1168.02 355.481Z" fill="#000C02"/>
<path d="M1135.04 365.484C1129.83 366.879 1125.03 366.74 1120.62 365.066C1116.2 363.331 1112.33 360.28 1109.02 355.912C1105.75 351.468 1103.24 345.946 1101.47 339.349C1099.69 332.69 1099.1 326.65 1099.73 321.228C1100.41 315.789 1102.24 311.244 1105.22 307.591C1108.18 303.878 1112.27 301.324 1117.47 299.929C1122.68 298.534 1127.49 298.674 1131.89 300.348C1136.3 302.022 1140.13 305.051 1143.38 309.435C1146.69 313.803 1149.24 319.346 1151.04 326.065C1152.83 332.723 1153.38 338.772 1152.7 344.21C1152.07 349.632 1150.28 354.2 1147.32 357.913C1144.34 361.566 1140.25 364.09 1135.04 365.484ZM1132.49 355.951C1136.84 354.783 1139.55 351.918 1140.59 347.355C1141.69 342.715 1141.24 336.673 1139.24 329.228C1137.23 321.722 1134.6 316.263 1131.35 312.852C1128.16 309.425 1124.39 308.295 1120.03 309.463C1115.79 310.598 1113.09 313.463 1111.92 318.058C1110.81 322.637 1111.26 328.68 1113.27 336.186C1115.27 343.631 1117.9 349.09 1121.16 352.561C1124.47 355.956 1128.25 357.086 1132.49 355.951Z" fill="#000C02"/>
<path d="M1055.36 385.668L1053.21 377.678C1059.78 369.496 1064.95 362.53 1068.73 356.782C1072.56 350.956 1075.13 346.018 1076.44 341.968C1077.82 337.901 1078.12 334.415 1077.34 331.509C1076.54 328.543 1074.94 326.442 1072.53 325.206C1070.17 323.893 1067.39 323.666 1064.18 324.526C1060.67 325.466 1058.05 327.334 1056.34 330.13C1054.68 332.909 1054.35 336.274 1055.34 340.225L1043.9 343.29C1042.9 338.564 1042.98 334.291 1044.17 330.471C1045.33 326.591 1047.44 323.333 1050.5 320.697C1053.54 318.001 1057.33 316.044 1061.87 314.828C1066.29 313.644 1070.34 313.401 1074.03 314.099C1077.79 314.781 1080.96 316.331 1083.55 318.75C1086.19 321.092 1088.02 324.17 1089.04 327.983C1090.11 331.979 1090.18 336.112 1089.25 340.384C1088.3 344.595 1086.24 349.236 1083.06 354.306C1079.93 359.36 1075.54 365.111 1069.87 371.561L1098.74 363.824L1101.3 373.358L1055.36 385.668Z" fill="#000C02"/>
</svg>
