<?xml version="1.0" encoding="UTF-8"?>
<svg id="Diagram" xmlns="http://www.w3.org/2000/svg" viewBox="0 0 499.05 269.45">
  <defs>
    <style>
      .cls-1 {
        font-size: 8px;
      }

      .cls-1, .cls-2 {
        font-family: NVIDIASans-Bold, 'NVIDIA Sans';
        font-weight: 700;
      }

      .cls-3 {
        stroke: #76b900;
        stroke-linecap: square;
        stroke-width: 2px;
      }

      .cls-3, .cls-4 {
        fill: none;
        stroke-miterlimit: 10;
      }

      .cls-5 {
        font-family: NVIDIASans-Regular, 'NVIDIA Sans';
        font-size: 9.9px;
      }

      .cls-6 {
        letter-spacing: 0em;
      }

      .cls-7 {
        letter-spacing: 0em;
      }

      .cls-8 {
        letter-spacing: 0em;
      }

      .cls-9 {
        letter-spacing: 0em;
      }

      .cls-10 {
        letter-spacing: 0em;
      }

      .cls-11 {
        letter-spacing: 0em;
      }

      .cls-4 {
        stroke: #000;
      }

      .cls-12 {
        letter-spacing: -.08em;
      }

      .cls-13 {
        letter-spacing: -.06em;
      }

      .cls-14 {
        letter-spacing: -.02em;
      }

      .cls-15 {
        letter-spacing: -.02em;
      }

      .cls-16 {
        letter-spacing: -.02em;
      }

      .cls-17 {
        letter-spacing: -.02em;
      }

      .cls-18 {
        letter-spacing: -.04em;
      }

      .cls-19 {
        fill: #76b900;
      }

      .cls-20 {
        letter-spacing: 0em;
      }

      .cls-21 {
        letter-spacing: 0em;
      }

      .cls-22 {
        letter-spacing: 0em;
      }

      .cls-23 {
        letter-spacing: 0em;
      }

      .cls-24 {
        letter-spacing: 0em;
      }

      .cls-25 {
        letter-spacing: 0em;
      }

      .cls-26 {
        letter-spacing: 0em;
      }

      .cls-27 {
        letter-spacing: 0em;
      }

      .cls-28 {
        letter-spacing: 0em;
      }

      .cls-29 {
        letter-spacing: 0em;
      }

      .cls-30 {
        letter-spacing: 0em;
      }

      .cls-31 {
        letter-spacing: 0em;
      }

      .cls-32 {
        letter-spacing: 0em;
      }

      .cls-33 {
        letter-spacing: 0em;
      }

      .cls-34 {
        letter-spacing: 0em;
      }

      .cls-35 {
        letter-spacing: 0em;
      }

      .cls-36 {
        letter-spacing: 0em;
      }

      .cls-37 {
        letter-spacing: 0em;
      }

      .cls-38 {
        letter-spacing: .03em;
      }

      .cls-39 {
        letter-spacing: .02em;
      }

      .cls-40 {
        letter-spacing: .02em;
      }

      .cls-41 {
        letter-spacing: .05em;
      }

      .cls-42 {
        letter-spacing: .04em;
      }

      .cls-43 {
        letter-spacing: .03em;
      }

      .cls-44 {
        letter-spacing: .03em;
      }

      .cls-45 {
        letter-spacing: .04em;
      }

      .cls-46 {
        letter-spacing: .03em;
      }

      .cls-47 {
        letter-spacing: .01em;
      }

      .cls-48 {
        letter-spacing: .01em;
      }

      .cls-2 {
        font-size: 12px;
      }

      .cls-49 {
        letter-spacing: 0em;
      }

      .cls-50 {
        letter-spacing: 0em;
      }
    </style>
  </defs>
  <g>
    <g>
      <line class="cls-4" x1="53.84" y1="232.84" x2="477.74" y2="232.84"/>
      <line class="cls-4" x1="59.14" y1="232.84" x2="59.14" y2="228.29"/>
    </g>
    <g>
      <g>
        <text class="cls-5" transform="translate(34.64 236.4)"><tspan class="cls-44" x="0" y="0">0</tspan><tspan x="6.27" y="0">%</tspan></text>
        <text class="cls-2" transform="translate(137.12 27)"><tspan x="0" y="0"> </tspan><tspan class="cls-23" x="3" y="0">P</tspan><tspan class="cls-33" x="10.76" y="0">r</tspan><tspan x="15.65" y="0">o</tspan><tspan class="cls-24" x="22.69" y="0">g</tspan><tspan class="cls-35" x="29.93" y="0">r</tspan><tspan class="cls-36" x="34.81" y="0">e</tspan><tspan class="cls-50" x="41.52" y="0">s</tspan><tspan x="47.86" y="0">s </tspan><tspan class="cls-32" x="57.09" y="0">o</tspan><tspan class="cls-6" x="64.09" y="0">n </tspan><tspan class="cls-10" x="74.34" y="0">O</tspan><tspan class="cls-24" x="83.52" y="0">u</tspan><tspan class="cls-6" x="90.54" y="0">r R</tspan><tspan class="cls-28" x="106.29" y="0">en</tspan><tspan class="cls-15" x="120.24" y="0">e</tspan><tspan class="cls-14" x="126.75" y="0">w</tspan><tspan class="cls-21" x="136.49" y="0">a</tspan><tspan class="cls-31" x="143.19" y="0">b</tspan><tspan class="cls-37" x="150.49" y="0">l</tspan><tspan x="153.73" y="0">e </tspan><tspan class="cls-22" x="163.46" y="0">E</tspan><tspan class="cls-37" x="170.65" y="0">l</tspan><tspan class="cls-11" x="173.88" y="0">e</tspan><tspan class="cls-39" x="180.63" y="0">c</tspan><tspan class="cls-20" x="187.21" y="0">t</tspan><tspan class="cls-26" x="192.53" y="0">r</tspan><tspan class="cls-34" x="197.35" y="0">i</tspan><tspan class="cls-25" x="200.55" y="0">c</tspan><tspan class="cls-9" x="206.82" y="0">i</tspan><tspan class="cls-40" x="210.07" y="0">t</tspan><tspan x="215.65" y="0">y </tspan><tspan class="cls-12" x="225.14" y="0">T</tspan><tspan class="cls-21" x="231.35" y="0">a</tspan><tspan class="cls-29" x="238.05" y="0">rg</tspan><tspan class="cls-48" x="250.25" y="0">e</tspan><tspan x="257.1" y="0">t</tspan></text>
        <text class="cls-5" transform="translate(28.59 199.97)"><tspan class="cls-47" x="0" y="0">2</tspan><tspan class="cls-44" x="6.05" y="0">0</tspan><tspan class="cls-7" x="12.31" y="0">%</tspan></text>
        <text class="cls-5" transform="translate(28.36 163.54)"><tspan class="cls-43" x="0" y="0">4</tspan><tspan class="cls-44" x="6.28" y="0">0</tspan><tspan x="12.55" y="0">%</tspan></text>
        <text class="cls-5" transform="translate(28.42 127.11)"><tspan class="cls-46" x="0" y="0">6</tspan><tspan class="cls-44" x="6.22" y="0">0</tspan><tspan class="cls-7" x="12.49" y="0">%</tspan></text>
        <text class="cls-5" transform="translate(28.43 90.67)"><tspan class="cls-38" x="0" y="0">8</tspan><tspan class="cls-44" x="6.21" y="0">0</tspan><tspan x="12.48" y="0">%</tspan></text>
        <text class="cls-5" transform="translate(22.77 54.24)"><tspan class="cls-18" x="0" y="0">1</tspan><tspan class="cls-45" x="5.54" y="0">0</tspan><tspan class="cls-44" x="11.87" y="0">0</tspan><tspan class="cls-7" x="18.14" y="0">%</tspan></text>
      </g>
      <line class="cls-4" x1="59.14" y1="232.84" x2="59.14" y2="50.68"/>
      <g>
        <line class="cls-4" x1="53.84" y1="232.84" x2="64.3" y2="232.84"/>
        <line class="cls-4" x1="53.91" y1="196.41" x2="64.38" y2="196.41"/>
        <line class="cls-4" x1="53.91" y1="159.98" x2="64.38" y2="159.98"/>
        <line class="cls-4" x1="53.91" y1="123.54" x2="64.38" y2="123.54"/>
        <line class="cls-4" x1="53.91" y1="87.11" x2="64.38" y2="87.11"/>
        <line class="cls-4" x1="53.91" y1="50.68" x2="64.38" y2="50.68"/>
      </g>
    </g>
    <polyline class="cls-3" points="102.5 172.31 185.81 186.93 270.3 151.69 353.84 89.33 436 49.45 437.64 48.67"/>
  </g>
  <text class="cls-1" transform="translate(448.58 48.43)"><tspan class="cls-16" x="0" y="0">1</tspan><tspan class="cls-41" x="4.65" y="0">0</tspan><tspan class="cls-42" x="9.88" y="0">0</tspan><tspan x="15.04" y="0">%</tspan></text>
  <text class="cls-5" transform="translate(430.85 251.2)"><tspan class="cls-45" x="0" y="0">F</tspan><tspan class="cls-27" x="6.12" y="0">Y</tspan><tspan class="cls-8" x="12.11" y="0">2</tspan><tspan x="18.07" y="0">5</tspan></text>
  <text class="cls-5" transform="translate(345.98 251.2)"><tspan class="cls-45" x="0" y="0">F</tspan><tspan class="cls-30" x="6.12" y="0">Y</tspan><tspan class="cls-17" x="12.11" y="0">2</tspan><tspan x="17.9" y="0">4</tspan></text>
  <text class="cls-5" transform="translate(260.91 251.2)"><tspan class="cls-45" x="0" y="0">F</tspan><tspan class="cls-27" x="6.12" y="0">Y</tspan><tspan class="cls-49" x="12.11" y="0">2</tspan><tspan x="18.12" y="0">3</tspan></text>
  <text class="cls-5" transform="translate(175.99 251.21)"><tspan class="cls-45" x="0" y="0">F</tspan><tspan class="cls-30" x="6.12" y="0">Y</tspan><tspan x="12.11" y="0">22</tspan></text>
  <text class="cls-5" transform="translate(91.34 251.21)"><tspan class="cls-45" x="0" y="0">F</tspan><tspan class="cls-30" x="6.12" y="0">Y</tspan><tspan class="cls-13" x="12.11" y="0">2</tspan><tspan x="17.44" y="0">1</tspan></text>
  <g>
    <g>
      <circle class="cls-19" cx="101.44" cy="171.96" r="2.76"/>
      <path class="cls-19" d="M101.44,174.97c-1.66,0-3.01-1.35-3.01-3.01s1.35-3.01,3.01-3.01,3.01,1.35,3.01,3.01-1.35,3.01-3.01,3.01ZM101.44,169.45c-1.38,0-2.51,1.13-2.51,2.51s1.13,2.51,2.51,2.51,2.51-1.13,2.51-2.51-1.13-2.51-2.51-2.51Z"/>
    </g>
    <g>
      <circle class="cls-19" cx="185.89" cy="186.64" r="2.76"/>
      <path class="cls-19" d="M185.89,189.65c-1.66,0-3.01-1.35-3.01-3.01s1.35-3.01,3.01-3.01,3.01,1.35,3.01,3.01-1.35,3.01-3.01,3.01ZM185.89,184.13c-1.38,0-2.51,1.13-2.51,2.51s1.13,2.51,2.51,2.51,2.51-1.13,2.51-2.51-1.13-2.51-2.51-2.51Z"/>
    </g>
    <g>
      <circle class="cls-19" cx="270.09" cy="151.7" r="2.76"/>
      <path class="cls-19" d="M270.09,154.71c-1.66,0-3.01-1.35-3.01-3.01s1.35-3.01,3.01-3.01,3.01,1.35,3.01,3.01-1.35,3.01-3.01,3.01ZM270.09,149.19c-1.38,0-2.51,1.13-2.51,2.51s1.13,2.51,2.51,2.51,2.51-1.13,2.51-2.51-1.13-2.51-2.51-2.51Z"/>
    </g>
    <g>
      <circle class="cls-19" cx="354.07" cy="89.09" r="2.76"/>
      <path class="cls-19" d="M354.07,92.1c-1.66,0-3.01-1.35-3.01-3.01s1.35-3.01,3.01-3.01,3.01,1.35,3.01,3.01-1.35,3.01-3.01,3.01ZM354.07,86.58c-1.38,0-2.51,1.13-2.51,2.51s1.13,2.51,2.51,2.51,2.51-1.13,2.51-2.51-1.13-2.51-2.51-2.51Z"/>
    </g>
    <g>
      <circle class="cls-19" cx="442.86" cy="45.01" r="2.76"/>
      <path class="cls-19" d="M442.86,48.02c-1.66,0-3.01-1.35-3.01-3.01s1.35-3.01,3.01-3.01,3.01,1.35,3.01,3.01-1.35,3.01-3.01,3.01ZM442.86,42.5c-1.38,0-2.51,1.13-2.51,2.51s1.13,2.51,2.51,2.51,2.51-1.13,2.51-2.51-1.13-2.51-2.51-2.51Z"/>
    </g>
  </g>
  <polygon class="cls-19" points="438.2 56.7 436.24 56.31 437.75 48.51 429.95 46.99 430.33 45.02 440.1 46.92 438.2 56.7"/>
</svg>