<svg xmlns="http://www.w3.org/2000/svg" width="1147" height="505.8" fill="currentColor" viewBox="0 0 1147 505.8"><path d="M131 101.7c-65.8 0-119.6 53.8-119.6 119.6S65.2 340.9 131 340.9s119.6-53.5 119.6-119.6S197.1 101.7 131 101.7m0 196.3c-40.9 0-73.8-33.6-73.8-76.7s32.9-76.7 73.8-76.7 73.8 33.6 73.8 76.7S171.9 298 131 298m240.5-129.9c-21.6 0-42.5 8.6-53.5 23.3v-19.9h-43.2v232.6H318V320c11 13.6 31.2 20.9 53.5 20.9 46.5 0 83.1-36.5 83.1-86.4s-36.5-86.4-83.1-86.4m-7.3 135.3c-24.6 0-46.5-19.3-46.5-48.8s21.9-48.8 46.5-48.8 46.5 19.3 46.5 48.8-21.9 48.8-46.5 48.8m192-135.3c-47.2 0-84.4 36.9-84.4 86.4s32.6 86.4 85.7 86.4 71.4-26.2 80.1-55.8h-42.2c-5.3 12.3-20.3 20.9-38.2 20.9S518 290.4 514 268.1h125.6v-16.9c0-45.2-31.6-83.1-83.4-83.1m-41.8 69.5c4.7-20.9 21.9-34.6 42.9-34.6s39.2 14.6 41.2 34.6zm240.2-69.5c-19.3 0-39.5 8.6-48.8 22.9v-19.6h-43.2v166.1h43.2v-89.4c0-25.9 14-42.9 36.5-42.9s32.2 15.9 32.2 38.2v94h43.2v-101c0-41.2-25.2-68.4-63.1-68.4ZM928.3 105l-94 232.6h46.2l19.9-50.8h107l19.9 50.8h46.8L980.8 105zm-12.9 143.2 38.5-97.3 38.2 97.3zM1135.6 105h-43.9v232.6h43.9z"></path></svg>