<svg clip-rule="evenodd" fill-rule="evenodd" stroke-linejoin="round" stroke-miterlimit="2" viewBox="0 0 560 400" xmlns="http://www.w3.org/2000/svg"><path d="m26.153 11.46c.644-1.906.422-4.002-.608-5.73-.759-1.3-1.911-2.326-3.29-2.93-1.386-.609-2.929-.768-4.41-.454-.671-.745-1.492-1.339-2.41-1.742-.92-.404-1.916-.61-2.921-.604-1.512-.004-2.987.467-4.217 1.346-1.222.873-2.134 2.113-2.603 3.539-.985.199-1.917.604-2.734 1.188-.814.581-1.493 1.33-1.994 2.195-1.558 2.643-1.199 6.017.88 8.273-.644 1.906-.422 4.001.607 5.729.759 1.3 1.911 2.326 3.29 2.93 1.386.609 2.929.768 4.41.454.67.745 1.492 1.339 2.409 1.742.92.404 1.916.61 2.923.604 1.513.005 2.989-.465 4.22-1.345 1.223-.873 2.136-2.115 2.605-3.543.985-.198 1.917-.603 2.734-1.187.813-.581 1.493-1.33 1.993-2.196 1.555-2.643 1.195-6.016-.884-8.27zm-10.61 14.71c-1.412 0-2.505-.428-3.46-1.215.043-.023.119-.064.168-.094l5.65-3.22c.286-.161.464-.465.464-.793v-7.86l2.389 1.36c.025.013.042.037.046.065v6.508c0 2.952-2.491 5.248-5.257 5.248zm-11.481-4.816c-.623-1.059-.848-2.306-.635-3.516.042.025.115.07.168.1l5.65 3.22c.287.166.641.166.928 0l6.898-3.93v2.72c.002.028-.011.055-.034.072l-5.711 3.255c-1.225.695-2.674.882-4.035.522-1.356-.356-2.518-1.235-3.23-2.443zm-1.489-12.17c.625-1.067 1.605-1.882 2.768-2.301v6.632c-.003.329.176.635.464.793l6.897 3.93-2.388 1.36c-.024.016-.054.019-.08.008l-5.714-3.257c-1.215-.69-2.106-1.837-2.475-3.185-.365-1.343-.175-2.778.527-3.98zm19.623 4.506-6.898-3.93 2.388-1.36c.024-.016.054-.019.08-.008l5.713 3.255c.872.496 1.585 1.231 2.054 2.118.952 1.8.76 4-.488 5.608-.616.795-1.445 1.399-2.39 1.742v-6.633c.004-.328-.173-.632-.459-.792zm2.377-3.533c-.056-.034-.112-.067-.168-.099l-5.65-3.22c-.287-.165-.641-.165-.928 0l-6.898 3.93v-2.722c-.002-.028.011-.055.034-.072l5.712-3.251c1.786-1.015 4.004-.922 5.698.241.826.567 1.473 1.358 1.865 2.28.39.92.506 1.93.335 2.913zm-14.942 4.852-2.39-1.36c-.025-.012-.043-.037-.046-.065v-6.509c.001-.997.29-1.973.832-2.814.545-.843 1.319-1.515 2.231-1.935 1.866-.86 4.068-.58 5.659.72-.057.03-.113.061-.168.093l-5.65 3.22c-.286.161-.464.465-.465.793zm1.297-2.76 3.072-1.749 3.072 1.75v3.5l-3.072 1.749-3.072-1.75z" fill="#000001" fill-rule="nonzero" transform="matrix(10.7142 0 0 10.7142 130 50.0014)"/></svg>