<svg width="1265" height="324" viewBox="0 0 1265 324" fill="none" xmlns="http://www.w3.org/2000/svg">
<mask id="mask0_70_957" style="mask-type:luminance" maskUnits="userSpaceOnUse" x="0" y="0" width="1265" height="324">
<path d="M1265 0H0V324H1265V0Z" fill="url(#paint0_linear_70_957)"/>
</mask>
<g mask="url(#mask0_70_957)">
<path opacity="0.81" d="M1199.2 136.2V269.5" stroke="#9DC7FE" stroke-width="0.8"/>
<path opacity="0.4" d="M1199.2 269.5V324" stroke="#9DC7FE" stroke-width="0.7"/>
<path opacity="0.77" d="M1127.1 11.1001L1243.4 127.4" stroke="#9DC7FE" stroke-width="0.9"/>
<path opacity="0.92" d="M1243.4 127.4L1265 149" stroke="#9DC7FE" stroke-width="0.8"/>
<path opacity="0.56" d="M1259.9 324L1265 318.9" stroke="#9DC7FE" stroke-width="0.8"/>
<path opacity="0.41" d="M868.1 198.1H959.8" stroke="#D9E9FF" stroke-width="0.5"/>
<path opacity="0.52" d="M1213 198.1H1265" stroke="#D9E9FF" stroke-width="0.5"/>
<path opacity="0.5" d="M1000.7 21V104" stroke="#D9E9FF" stroke-width="0.6"/>
<path opacity="0.87" d="M1000.7 177.7V259.2" stroke="#9DC7FE" stroke-width="0.9"/>
<path opacity="0.46" d="M1000.7 320.3V324" stroke="#9DC7FE" stroke-width="0.7"/>
<path opacity="0.31" d="M1199.7 64.7002V123" stroke="#D9E9FF" stroke-width="0.5"/>
<path opacity="0.42" d="M1199.7 123V169.6" stroke="#9DC7FE" stroke-width="0.8"/>
<path opacity="0.42" d="M1199.7 169.6V258.5" stroke="#9DC7FE" stroke-width="0.6"/>
<path opacity="0.91" d="M881.1 161.1L939.8 219.8" stroke="#63A4FF" stroke-width="0.9"/>
<path opacity="0.44" d="M972.3 252.3L1031 311" stroke="#D9E9FF" stroke-width="0.5"/>
<path opacity="0.69" d="M891 296.9L943.5 244.4" stroke="#9DC7FE" stroke-width="0.9"/>
<path opacity="0.46" d="M943.5 244.4L992.2 195.8" stroke="#9DC7FE" stroke-width="0.6"/>
<path opacity="0.54" d="M992.2 195.8L1045.4 142.6" stroke="#9DC7FE" stroke-width="0.6"/>
<path opacity="0.81" d="M1045.4 142.6L1104.2 83.7002" stroke="#9DC7FE" stroke-width="0.9"/>
<path opacity="0.88" d="M1142.4 45.5L1187.9 0" stroke="#63A4FF" stroke-width="0.8"/>
<path opacity="0.74" d="M913.1 0.5H951.8" stroke="#9DC7FE" stroke-width="0.7"/>
<path opacity="0.48" d="M951.8 0.5H982.1" stroke="#D9E9FF" stroke-width="0.5"/>
<path opacity="0.54" d="M982.1 0.5H1032.1" stroke="#D9E9FF" stroke-width="0.6"/>
<path opacity="0.57" d="M1113.6 0.5H1153.1" stroke="#9DC7FE" stroke-width="0.7"/>
<path opacity="0.37" d="M1153.1 0.5H1195.7" stroke="#D9E9FF" stroke-width="0.6"/>
<path opacity="0.91" d="M904.9 74.1001H942.5" stroke="#9DC7FE" stroke-width="0.7"/>
<path opacity="0.72" d="M977.8 74.1001H1029.1" stroke="#63A4FF" stroke-width="0.7"/>
<path opacity="0.83" d="M1066.7 74.1001H1101.3" stroke="#9DC7FE" stroke-width="0.7"/>
<path opacity="0.43" d="M951.6 148.1H999.9" stroke="#9DC7FE" stroke-width="0.6"/>
<path opacity="0.5" d="M1049.8 148.1H1101.2" stroke="#9DC7FE" stroke-width="0.8"/>
<path opacity="0.53" d="M1147.6 148.1H1185.3" stroke="#9DC7FE" stroke-width="0.8"/>
<path opacity="0.42" d="M1185.3 148.1H1222.2" stroke="#9DC7FE" stroke-width="0.8"/>
<path opacity="0.69" d="M1222.2 148.1H1248.8" stroke="#9DC7FE" stroke-width="0.7"/>
<path opacity="0.32" d="M1029.3 224.4H1057.6" stroke="#D9E9FF" stroke-width="0.6"/>
<path opacity="0.35" d="M1110.9 224.4H1146.7" stroke="#9DC7FE" stroke-width="0.7"/>
<path opacity="0.46" d="M970.7 299.5H1010" stroke="#D9E9FF" stroke-width="0.5"/>
<path opacity="0.39" d="M975 0V10.3" stroke="#9DC7FE" stroke-width="0.6"/>
<path opacity="0.41" d="M975 10.2998V58.7998" stroke="#9DC7FE" stroke-width="0.6"/>
<path opacity="0.41" d="M975 58.7998V88.3998" stroke="#9DC7FE" stroke-width="0.7"/>
<path opacity="0.36" d="M975 88.3999V131.4" stroke="#D9E9FF" stroke-width="0.5"/>
<path opacity="0.43" d="M975 260.5V301.9" stroke="#9DC7FE" stroke-width="0.6"/>
<path opacity="0.46" d="M975 301.9V324" stroke="#9DC7FE" stroke-width="0.7"/>
<path opacity="0.48" d="M1048.1 0V6.8" stroke="#9DC7FE" stroke-width="0.7"/>
<path opacity="0.39" d="M1048.1 6.7998V37.5998" stroke="#D9E9FF" stroke-width="0.6"/>
<path opacity="0.43" d="M1048.1 85.3999V126" stroke="#D9E9FF" stroke-width="0.5"/>
<path opacity="0.38" d="M1048.1 265.7V318" stroke="#9DC7FE" stroke-width="0.7"/>
<path opacity="0.47" d="M1048.1 318V324" stroke="#9DC7FE" stroke-width="0.8"/>
<path opacity="0.52" d="M1123.2 0V51" stroke="#9DC7FE" stroke-width="0.7"/>
<path opacity="0.37" d="M1123.2 146.7V191.8" stroke="#9DC7FE" stroke-width="0.6"/>
<path opacity="0.37" d="M1123.2 285.1V312.6" stroke="#9DC7FE" stroke-width="0.7"/>
<path opacity="0.51" d="M1199.2 0V33.3" stroke="#D9E9FF" stroke-width="0.5"/>
<path opacity="0.52" d="M1199.2 33.2998V69.3998" stroke="#D9E9FF" stroke-width="0.5"/>
<path opacity="0.56" d="M1199.2 119.6V165.3" stroke="#9DC7FE" stroke-width="0.6"/>
<path opacity="0.88" d="M918.8 120.6L945.7 93.7998" stroke="#9DC7FE" stroke-width="0.8"/>
<path opacity="0.39" d="M1010.7 28.7L1039.4 0" stroke="#9DC7FE" stroke-width="0.7"/>
<path opacity="0.66" d="M906.4 281.5L932.6 255.4" stroke="#9DC7FE" stroke-width="0.9"/>
<path opacity="0.73" d="M932.6 255.4L964.4 223.6" stroke="#63A4FF" stroke-width="0.9"/>
<path opacity="0.57" d="M1164.7 23.3L1187.9 0" stroke="#9DC7FE" stroke-width="0.6"/>
<path opacity="0.48" d="M1060.8 275.6L1096.5 240" stroke="#D9E9FF" stroke-width="0.5"/>
<path opacity="0.52" d="M1172.8 163.6L1208.3 128.1" stroke="#9DC7FE" stroke-width="0.8"/>
<path opacity="0.48" d="M937.9 1.7002H956.8" stroke="#9DC7FE" stroke-width="0.6"/>
<path opacity="0.47" d="M1092.9 1.7002H1108.9" stroke="#9DC7FE" stroke-width="0.8"/>
<path opacity="0.4" d="M1108.9 1.7002H1119.8" stroke="#9DC7FE" stroke-width="0.7"/>
<path opacity="0.47" d="M1137.4 1.7002H1154" stroke="#9DC7FE" stroke-width="0.6"/>
<path opacity="0.37" d="M1154 1.7002H1173.4" stroke="#9DC7FE" stroke-width="0.6"/>
<path opacity="0.38" d="M1173.4 1.7002H1184.3" stroke="#9DC7FE" stroke-width="0.7"/>
<path opacity="0.53" d="M1184.3 1.7002H1205.3" stroke="#9DC7FE" stroke-width="0.7"/>
<path opacity="0.58" d="M1215 1.7002H1226.3" stroke="#9DC7FE" stroke-width="0.8"/>
<path opacity="0.36" d="M1243.2 1.7002H1258.3" stroke="#9DC7FE" stroke-width="0.8"/>
<path opacity="0.45" d="M1258.3 1.7002H1265" stroke="#9DC7FE" stroke-width="0.6"/>
<path opacity="0.51" d="M965.7 25.3999H987.3" stroke="#9DC7FE" stroke-width="0.7"/>
<path opacity="0.54" d="M1103.9 25.3999H1123.1" stroke="#D9E9FF" stroke-width="0.6"/>
<path opacity="0.41" d="M1123.1 25.3999H1137.1" stroke="#9DC7FE" stroke-width="0.8"/>
<path opacity="0.42" d="M1195 25.3999H1213.8" stroke="#9DC7FE" stroke-width="0.6"/>
<path opacity="0.47" d="M908.3 51.2002H918.2" stroke="#9DC7FE" stroke-width="0.7"/>
<path opacity="0.39" d="M973.3 51.2002H993.4" stroke="#9DC7FE" stroke-width="0.6"/>
<path opacity="0.5" d="M1019.1 51.2002H1037.9" stroke="#9DC7FE" stroke-width="0.7"/>
<path opacity="0.43" d="M1037.9 51.2002H1053.5" stroke="#9DC7FE" stroke-width="0.7"/>
<path opacity="0.37" d="M1053.5 51.2002H1062.3" stroke="#9DC7FE" stroke-width="0.6"/>
<path opacity="0.46" d="M906.1 76.5H921.3" stroke="#9DC7FE" stroke-width="0.6"/>
<path opacity="0.44" d="M940.1 76.5H949.1" stroke="#9DC7FE" stroke-width="0.6"/>
<path opacity="0.4" d="M1025.1 76.5H1034.6" stroke="#9DC7FE" stroke-width="0.8"/>
<path opacity="0.51" d="M900.7 100.3H912.9" stroke="#9DC7FE" stroke-width="0.7"/>
<path opacity="0.39" d="M930.2 100.3H944.1" stroke="#9DC7FE" stroke-width="0.8"/>
<path opacity="0.37" d="M960.7 100.3H980.3" stroke="#D9E9FF" stroke-width="0.6"/>
<path opacity="0.41" d="M980.3 100.3H992.7" stroke="#D9E9FF" stroke-width="0.6"/>
<path opacity="0.54" d="M1050.2 100.3H1062.5" stroke="#9DC7FE" stroke-width="0.6"/>
<path opacity="0.35" d="M1073.3 100.3H1089.6" stroke="#D9E9FF" stroke-width="0.6"/>
<path opacity="0.39" d="M1216.3 100.3H1226.7" stroke="#D9E9FF" stroke-width="0.6"/>
<path opacity="0.38" d="M936.3 126.9H944.8" stroke="#9DC7FE" stroke-width="0.8"/>
<path opacity="0.39" d="M1029.7 126.9H1042.8" stroke="#9DC7FE" stroke-width="0.8"/>
<path opacity="0.41" d="M1042.8 126.9H1061.5" stroke="#9DC7FE" stroke-width="0.6"/>
<path opacity="0.43" d="M1084.1 126.9H1094.7" stroke="#9DC7FE" stroke-width="0.8"/>
<path opacity="0.43" d="M1128.4 126.9H1146.5" stroke="#9DC7FE" stroke-width="0.7"/>
<path opacity="0.48" d="M1166.1 126.9H1176.7" stroke="#9DC7FE" stroke-width="0.8"/>
<path opacity="0.56" d="M942.7 149.8H964.4" stroke="#9DC7FE" stroke-width="0.6"/>
<path opacity="0.38" d="M975.6 149.8H997.2" stroke="#9DC7FE" stroke-width="0.6"/>
<path opacity="0.42" d="M1094.8 149.8H1110.3" stroke="#9DC7FE" stroke-width="0.7"/>
<path opacity="0.58" d="M907.6 174.7H920.7" stroke="#9DC7FE" stroke-width="0.6"/>
<path opacity="0.5" d="M920.7 174.7H939.7" stroke="#9DC7FE" stroke-width="0.7"/>
<path opacity="0.49" d="M968.9 174.7H983.6" stroke="#9DC7FE" stroke-width="0.8"/>
<path opacity="0.51" d="M1125.8 174.7H1136.3" stroke="#9DC7FE" stroke-width="0.6"/>
<path opacity="0.51" d="M1136.3 174.7H1148.3" stroke="#9DC7FE" stroke-width="0.8"/>
<path opacity="0.55" d="M1159.9 174.7H1177.2" stroke="#9DC7FE" stroke-width="0.7"/>
<path opacity="0.36" d="M904.6 200.7H920.9" stroke="#9DC7FE" stroke-width="0.8"/>
<path opacity="0.4" d="M930.5 200.7H945.2" stroke="#9DC7FE" stroke-width="0.7"/>
<path opacity="0.57" d="M945.2 200.7H955" stroke="#9DC7FE" stroke-width="0.7"/>
<path opacity="0.51" d="M948.2 223.1H960.4" stroke="#9DC7FE" stroke-width="0.6"/>
<path opacity="0.37" d="M939 249.6H957.5" stroke="#9DC7FE" stroke-width="0.6"/>
<path opacity="0.47" d="M905.1 273.6H924" stroke="#9DC7FE" stroke-width="0.8"/>
<path opacity="0.5" d="M1212.4 273.6H1222.3" stroke="#9DC7FE" stroke-width="0.6"/>
<path opacity="0.43" d="M918.7 299.5H931.2" stroke="#9DC7FE" stroke-width="0.6"/>
<path opacity="0.57" d="M931.2 299.5H941.4" stroke="#9DC7FE" stroke-width="0.7"/>
<path opacity="0.32" d="M963.1 299.5H974.1" stroke="#D9E9FF" stroke-width="0.5"/>
<path opacity="0.53" d="M995.5 299.5H1006.7" stroke="#9DC7FE" stroke-width="0.6"/>
<path opacity="0.46" d="M1141.6 299.5H1151.5" stroke="#9DC7FE" stroke-width="0.7"/>
<path opacity="0.5" d="M913.7 323.9H924.2" stroke="#9DC7FE" stroke-width="0.8"/>
<path opacity="0.39" d="M971.3 323.9H982.6" stroke="#9DC7FE" stroke-width="0.7"/>
<path opacity="0.49" d="M1087.9 323.9H1103.8" stroke="#9DC7FE" stroke-width="0.8"/>
<path opacity="0.5" d="M924 17.6001V28.2001" stroke="#D9E9FF" stroke-width="0.6"/>
<path opacity="0.5" d="M924 28.2002V47.8002" stroke="#9DC7FE" stroke-width="0.7"/>
<path opacity="0.55" d="M924 116.5V128.8" stroke="#9DC7FE" stroke-width="0.8"/>
<path opacity="0.43" d="M924 225.6V238" stroke="#9DC7FE" stroke-width="0.7"/>
<path opacity="0.57" d="M924 257.7V273.6" stroke="#9DC7FE" stroke-width="0.6"/>
<path opacity="0.53" d="M951.9 20.2002V34.8002" stroke="#9DC7FE" stroke-width="0.7"/>
<path opacity="0.54" d="M951.9 73.8999V94.2999" stroke="#9DC7FE" stroke-width="0.7"/>
<path opacity="0.49" d="M951.9 94.2998V109.2" stroke="#9DC7FE" stroke-width="0.8"/>
<path opacity="0.36" d="M951.9 109.2V117.5" stroke="#9DC7FE" stroke-width="0.6"/>
<path opacity="0.42" d="M951.9 127.3V144.3" stroke="#9DC7FE" stroke-width="0.7"/>
<path opacity="0.42" d="M951.9 154.1V164.6" stroke="#9DC7FE" stroke-width="0.6"/>
<path opacity="0.48" d="M951.9 222.1V240.8" stroke="#9DC7FE" stroke-width="0.6"/>
<path opacity="0.55" d="M951.9 251.9V272.1" stroke="#9DC7FE" stroke-width="0.8"/>
<path opacity="0.56" d="M951.9 313V324" stroke="#9DC7FE" stroke-width="0.8"/>
<path opacity="0.35" d="M976.9 0V19.3" stroke="#9DC7FE" stroke-width="0.7"/>
<path opacity="0.54" d="M976.9 19.2998V35.5998" stroke="#9DC7FE" stroke-width="0.6"/>
<path opacity="0.38" d="M976.9 35.6001V47.3001" stroke="#9DC7FE" stroke-width="0.8"/>
<path opacity="0.48" d="M976.9 47.2998V68.3998" stroke="#9DC7FE" stroke-width="0.6"/>
<path opacity="0.35" d="M976.9 83.2998V101.2" stroke="#D9E9FF" stroke-width="0.5"/>
<path opacity="0.45" d="M976.9 203.4V220" stroke="#D9E9FF" stroke-width="0.6"/>
<path opacity="0.53" d="M1000.4 3.1001V12.8001" stroke="#9DC7FE" stroke-width="0.8"/>
<path opacity="0.58" d="M1000.4 29.7998V42.7998" stroke="#9DC7FE" stroke-width="0.6"/>
<path opacity="0.39" d="M1000.4 81.3999V95.5999" stroke="#9DC7FE" stroke-width="0.8"/>
<path opacity="0.36" d="M1000.4 95.6001V110.3" stroke="#9DC7FE" stroke-width="0.8"/>
<path opacity="0.55" d="M1000.4 309.8V324" stroke="#9DC7FE" stroke-width="0.6"/>
<path opacity="0.5" d="M1025.2 0V3.2" stroke="#9DC7FE" stroke-width="0.8"/>
<path opacity="0.54" d="M1025.2 18.7002V38.5002" stroke="#D9E9FF" stroke-width="0.5"/>
<path opacity="0.39" d="M1025.2 55.7002V69.7002" stroke="#9DC7FE" stroke-width="0.6"/>
<path opacity="0.39" d="M1025.2 98.3999V108.7" stroke="#9DC7FE" stroke-width="0.7"/>
<path opacity="0.56" d="M1025.2 141.2V159.5" stroke="#9DC7FE" stroke-width="0.6"/>
<path opacity="0.49" d="M1025.2 159.5V169.9" stroke="#9DC7FE" stroke-width="0.6"/>
<path opacity="0.47" d="M1051.1 0V10.2" stroke="#9DC7FE" stroke-width="0.6"/>
<path opacity="0.57" d="M1051.1 23V39.3" stroke="#9DC7FE" stroke-width="0.8"/>
<path opacity="0.35" d="M1051.1 39.2998V47.5998" stroke="#9DC7FE" stroke-width="0.6"/>
<path opacity="0.31" d="M1051.1 47.6001V57.5001" stroke="#D9E9FF" stroke-width="0.5"/>
<path opacity="0.42" d="M1051.1 292.7V302.4" stroke="#9DC7FE" stroke-width="0.8"/>
<path opacity="0.41" d="M1051.1 314.4V324" stroke="#9DC7FE" stroke-width="0.6"/>
<path opacity="0.41" d="M1075.4 7.2998V25.2998" stroke="#9DC7FE" stroke-width="0.7"/>
<path opacity="0.43" d="M1075.4 37.5V58.9" stroke="#9DC7FE" stroke-width="0.6"/>
<path opacity="0.44" d="M1075.4 58.8999V71.4999" stroke="#9DC7FE" stroke-width="0.7"/>
<path opacity="0.53" d="M1075.4 147.9V162.7" stroke="#9DC7FE" stroke-width="0.7"/>
<path opacity="0.46" d="M1101 0V5.4" stroke="#9DC7FE" stroke-width="0.7"/>
<path opacity="0.46" d="M1101 20.2002V33.6002" stroke="#9DC7FE" stroke-width="0.8"/>
<path opacity="0.51" d="M1101 49.7002V66.6002" stroke="#9DC7FE" stroke-width="0.6"/>
<path opacity="0.48" d="M1101 66.6001V78.2001" stroke="#9DC7FE" stroke-width="0.8"/>
<path opacity="0.38" d="M1101 276.1V297.6" stroke="#9DC7FE" stroke-width="0.7"/>
<path opacity="0.36" d="M1125.8 28.2998V38.8998" stroke="#9DC7FE" stroke-width="0.8"/>
<path opacity="0.36" d="M1125.8 130.2V140.6" stroke="#9DC7FE" stroke-width="0.7"/>
<path opacity="0.4" d="M1125.8 140.6V159.2" stroke="#9DC7FE" stroke-width="0.7"/>
<path opacity="0.45" d="M1150.6 149.3V170.3" stroke="#9DC7FE" stroke-width="0.7"/>
<path opacity="0.37" d="M1176.2 0V1.7" stroke="#9DC7FE" stroke-width="0.8"/>
<path opacity="0.47" d="M1226.8 0V3.9" stroke="#9DC7FE" stroke-width="0.7"/>
<path opacity="0.47" d="M1226.8 108.8V120" stroke="#9DC7FE" stroke-width="0.8"/>
<path opacity="0.44" d="M1226.8 268.8V289.5" stroke="#9DC7FE" stroke-width="0.7"/>
<path opacity="0.46" d="M1226.8 289.5V303.8" stroke="#9DC7FE" stroke-width="0.8"/>
<path opacity="0.46" d="M936.7 53.2002L944.3 45.7002" stroke="#9DC7FE" stroke-width="0.6"/>
<path opacity="0.51" d="M944.3 45.7002L951.7 38.2002" stroke="#9DC7FE" stroke-width="0.8"/>
<path opacity="0.38" d="M908.3 131.2L918.4 121.1" stroke="#9DC7FE" stroke-width="0.7"/>
<path opacity="0.56" d="M943 96.3999L952 87.3999" stroke="#9DC7FE" stroke-width="0.6"/>
<path opacity="0.55" d="M1003.4 36.0999L1013.6 25.8999" stroke="#9DC7FE" stroke-width="0.8"/>
<path opacity="0.32" d="M918.3 170.7L927.8 161.2" stroke="#D9E9FF" stroke-width="0.5"/>
<path opacity="0.48" d="M927.8 161.2L942 147" stroke="#9DC7FE" stroke-width="0.7"/>
<path opacity="0.4" d="M999.2 89.6998L1006.2 82.7998" stroke="#9DC7FE" stroke-width="0.7"/>
<path opacity="0.33" d="M1013.6 75.3999L1021.1 67.8999" stroke="#D9E9FF" stroke-width="0.5"/>
<path opacity="0.53" d="M1063.4 25.5L1071.4 17.5" stroke="#9DC7FE" stroke-width="0.6"/>
<path opacity="0.44" d="M945.7 192.8L954.6 183.9" stroke="#9DC7FE" stroke-width="0.8"/>
<path opacity="0.52" d="M1025.7 112.8L1039.5 98.8999" stroke="#9DC7FE" stroke-width="0.6"/>
<path opacity="0.36" d="M1039.5 98.9001L1049.3 89.1001" stroke="#D9E9FF" stroke-width="0.5"/>
<path opacity="0.43" d="M1049.3 89.1L1063.4 75" stroke="#9DC7FE" stroke-width="0.8"/>
<path opacity="0.44" d="M903 285L915.3 272.6" stroke="#9DC7FE" stroke-width="0.7"/>
<path opacity="0.42" d="M928.6 259.4L937.7 250.2" stroke="#9DC7FE" stroke-width="0.6"/>
<path opacity="0.49" d="M937.7 250.2L952.7 235.2" stroke="#9DC7FE" stroke-width="0.8"/>
<path opacity="0.41" d="M1041.4 146.6L1050.3 137.6" stroke="#D9E9FF" stroke-width="0.5"/>
<path opacity="0.46" d="M1050.3 137.6L1064.8 123.1" stroke="#9DC7FE" stroke-width="0.6"/>
<path opacity="0.55" d="M1086.1 101.8L1095.2 92.7998" stroke="#9DC7FE" stroke-width="0.7"/>
<path opacity="0.48" d="M1105.5 82.4001L1116.4 71.6001" stroke="#9DC7FE" stroke-width="0.8"/>
<path opacity="0.47" d="M913.4 324L919.5 317.9" stroke="#9DC7FE" stroke-width="0.8"/>
<path opacity="0.47" d="M919.5 317.9L933.1 304.3" stroke="#9DC7FE" stroke-width="0.6"/>
<path opacity="0.37" d="M947.3 290.1L954.7 282.7" stroke="#D9E9FF" stroke-width="0.6"/>
<path opacity="0.5" d="M962.4 275L975.3 262.2" stroke="#9DC7FE" stroke-width="0.7"/>
<path opacity="0.51" d="M1208 29.3998L1223.1 14.2998" stroke="#9DC7FE" stroke-width="0.6"/>
<path opacity="0.47" d="M1223.1 14.2998L1234.7 2.7998" stroke="#9DC7FE" stroke-width="0.7"/>
<path opacity="0.47" d="M1007.6 279.3L1016.5 270.5" stroke="#9DC7FE" stroke-width="0.8"/>
<path opacity="0.44" d="M1144.1 142.8L1154.5 132.4" stroke="#9DC7FE" stroke-width="0.8"/>
<path opacity="0.47" d="M1012.4 324L1024 312.4" stroke="#9DC7FE" stroke-width="0.8"/>
<path opacity="0.36" d="M1024 312.4L1033.8 302.6" stroke="#9DC7FE" stroke-width="0.8"/>
<path opacity="0.36" d="M1209.3 176.7L1217.6 168.4" stroke="#9DC7FE" stroke-width="0.7"/>
<g opacity="0.45">
<path d="M1103 240H1100V243H1103V240Z" fill="#9DC7FE"/>
<path d="M1125 240H1122V243H1125V240Z" fill="#9DC7FE"/>
<path d="M1136 240H1133V243H1136V240Z" fill="#9DC7FE"/>
<path d="M1147 240H1144V243H1147V240Z" fill="#9DC7FE"/>
</g>
<g opacity="0.75">
<path d="M1045 145V225" stroke="#9DC7FE" stroke-width="0.7"/>
<path d="M1059 145V225" stroke="#9DC7FE" stroke-width="0.7"/>
<path d="M1073 145V225" stroke="#9DC7FE" stroke-width="0.7"/>
<path d="M1087 145V225" stroke="#9DC7FE" stroke-width="0.7"/>
<path d="M1101 145V225" stroke="#9DC7FE" stroke-width="0.7"/>
<path d="M1115 145V225" stroke="#9DC7FE" stroke-width="0.7"/>
<path d="M1129 145V225" stroke="#9DC7FE" stroke-width="0.7"/>
<path d="M1143 145V225" stroke="#9DC7FE" stroke-width="0.7"/>
<path d="M1045 145H1145" stroke="#9DC7FE" stroke-width="0.7"/>
<path d="M1045 159H1145" stroke="#9DC7FE" stroke-width="0.7"/>
<path d="M1045 173H1145" stroke="#9DC7FE" stroke-width="0.7"/>
<path d="M1045 187H1145" stroke="#9DC7FE" stroke-width="0.7"/>
<path d="M1045 201H1145" stroke="#9DC7FE" stroke-width="0.7"/>
<path d="M1045 215H1145" stroke="#9DC7FE" stroke-width="0.7"/>
</g>
<g opacity="0.65">
<path d="M1180 230V290" stroke="#9DC7FE" stroke-width="0.6"/>
<path d="M1192 230V290" stroke="#9DC7FE" stroke-width="0.6"/>
<path d="M1204 230V290" stroke="#9DC7FE" stroke-width="0.6"/>
<path d="M1216 230V290" stroke="#9DC7FE" stroke-width="0.6"/>
<path d="M1228 230V290" stroke="#9DC7FE" stroke-width="0.6"/>
<path d="M1240 230V290" stroke="#9DC7FE" stroke-width="0.6"/>
<path d="M1252 230V290" stroke="#9DC7FE" stroke-width="0.6"/>
<path d="M1180 230H1255" stroke="#9DC7FE" stroke-width="0.6"/>
<path d="M1180 242H1255" stroke="#9DC7FE" stroke-width="0.6"/>
<path d="M1180 254H1255" stroke="#9DC7FE" stroke-width="0.6"/>
<path d="M1180 266H1255" stroke="#9DC7FE" stroke-width="0.6"/>
<path d="M1180 278H1255" stroke="#9DC7FE" stroke-width="0.6"/>
<path d="M1180 290H1255" stroke="#9DC7FE" stroke-width="0.6"/>
</g>
<g opacity="0.69">
<path d="M1168.44 244.698H1178.44" stroke="#9DC7FE" stroke-width="0.7"/>
<path d="M1173.44 239.698V249.698" stroke="#9DC7FE" stroke-width="0.7"/>
</g>
<g opacity="0.69">
<path d="M1048.54 251.174H1056.54" stroke="#9DC7FE" stroke-width="0.7"/>
<path d="M1052.54 247.174V255.174" stroke="#9DC7FE" stroke-width="0.7"/>
</g>
<g opacity="0.63">
<path d="M1114.1 205.678H1120.1" stroke="#9DC7FE" stroke-width="0.7"/>
<path d="M1117.1 202.678V208.678" stroke="#9DC7FE" stroke-width="0.7"/>
</g>
<g opacity="0.38">
<path d="M1016.43 259.624H1024.43" stroke="#63A4FF" stroke-width="0.7"/>
<path d="M1020.43 255.624V263.624" stroke="#63A4FF" stroke-width="0.7"/>
</g>
<g opacity="0.42">
<path d="M1156.12 252.55H1166.12" stroke="#9DC7FE" stroke-width="0.7"/>
<path d="M1161.12 247.55V257.55" stroke="#9DC7FE" stroke-width="0.7"/>
</g>
<g opacity="0.64">
<path d="M1100.7 237.875H1112.7" stroke="#9DC7FE" stroke-width="0.7"/>
<path d="M1106.7 231.875V243.875" stroke="#9DC7FE" stroke-width="0.7"/>
</g>
<g opacity="0.9">
<path d="M1147.64 220.716H1157.64" stroke="#63A4FF" stroke-width="0.7"/>
<path d="M1152.64 215.716V225.716" stroke="#63A4FF" stroke-width="0.7"/>
</g>
<g opacity="0.83">
<path d="M1157.81 165.398H1167.81" stroke="#9DC7FE" stroke-width="0.7"/>
<path d="M1162.81 160.398V170.398" stroke="#9DC7FE" stroke-width="0.7"/>
</g>
<g opacity="0.42">
<path d="M1139.77 222.523H1151.77" stroke="#63A4FF" stroke-width="0.7"/>
<path d="M1145.77 216.523V228.523" stroke="#63A4FF" stroke-width="0.7"/>
</g>
<g opacity="0.73">
<path d="M1058.37 165.776H1066.37" stroke="#63A4FF" stroke-width="0.7"/>
<path d="M1062.37 161.776V169.776" stroke="#63A4FF" stroke-width="0.7"/>
</g>
<g opacity="0.81">
<path d="M1114.33 162.24H1124.33" stroke="#9DC7FE" stroke-width="0.7"/>
<path d="M1119.33 157.24V167.24" stroke="#9DC7FE" stroke-width="0.7"/>
</g>
<g opacity="0.49">
<path d="M1088.56 148.652H1098.56" stroke="#9DC7FE" stroke-width="0.7"/>
<path d="M1093.56 143.652V153.652" stroke="#9DC7FE" stroke-width="0.7"/>
</g>
<g opacity="0.35">
<path d="M1048.42 229.529H1056.42" stroke="#9DC7FE" stroke-width="0.7"/>
<path d="M1052.42 225.529V233.529" stroke="#9DC7FE" stroke-width="0.7"/>
</g>
<g opacity="0.53">
<path d="M1173.19 184.031H1181.19" stroke="#9DC7FE" stroke-width="0.7"/>
<path d="M1177.19 180.031V188.031" stroke="#9DC7FE" stroke-width="0.7"/>
</g>
<g opacity="0.83">
<path d="M1055.79 215.758H1067.79" stroke="#9DC7FE" stroke-width="0.7"/>
<path d="M1061.79 209.758V221.758" stroke="#9DC7FE" stroke-width="0.7"/>
</g>
<path opacity="0.5" d="M1044.2 219.3H1038.2V223.3H1044.2V219.3Z" fill="#9DC7FE"/>
<path opacity="0.64" d="M1149 188.6H1141V194.6H1149V188.6Z" stroke="#63A4FF" stroke-width="0.6"/>
<path opacity="0.61" d="M1056.9 226.2H1052.9V229.2H1056.9V226.2Z" fill="#63A4FF"/>
<path opacity="0.36" d="M1108.5 152.4H1100.5V155.4H1108.5V152.4Z" fill="#63A4FF"/>
<path opacity="0.37" d="M1036.8 165.9H1022.8V171.9H1036.8V165.9Z" stroke="#9DC7FE" stroke-width="0.6"/>
<path opacity="0.66" d="M1141.1 249.5H1137.1V252.5H1141.1V249.5Z" fill="#63A4FF"/>
<path opacity="0.72" d="M1030.5 227.2H1022.5V230.2H1030.5V227.2Z" fill="#9DC7FE"/>
<path opacity="0.33" d="M1126.4 185.5H1116.4V188.5H1126.4V185.5Z" fill="#9DC7FE"/>
<path opacity="0.81" d="M1061.2 248.9H1053.2V254.9H1061.2V248.9Z" fill="#9DC7FE"/>
<path opacity="0.57" d="M1171.9 178.5H1161.9V181.5H1171.9V178.5Z" fill="#63A4FF"/>
<path opacity="0.54" d="M1095.6 207.3H1085.6V213.3H1095.6V207.3Z" fill="#9DC7FE"/>
<path opacity="0.72" d="M1076.2 255.2H1062.2V261.2H1076.2V255.2Z" stroke="#9DC7FE" stroke-width="0.6"/>
<path opacity="0.64" d="M1137.7 235.2C1140.46 235.2 1142.7 232.962 1142.7 230.2C1142.7 227.439 1140.46 225.2 1137.7 225.2C1134.94 225.2 1132.7 227.439 1132.7 230.2C1132.7 232.962 1134.94 235.2 1137.7 235.2Z" stroke="#63A4FF" stroke-width="0.6"/>
<path opacity="0.7" d="M1104.9 195.7C1107.66 195.7 1109.9 193.462 1109.9 190.7C1109.9 187.939 1107.66 185.7 1104.9 185.7C1102.14 185.7 1099.9 187.939 1099.9 190.7C1099.9 193.462 1102.14 195.7 1104.9 195.7Z" stroke="#9DC7FE" stroke-width="0.6"/>
<path opacity="0.51" d="M1048.6 175.6C1051.36 175.6 1053.6 173.362 1053.6 170.6C1053.6 167.839 1051.36 165.6 1048.6 165.6C1045.84 165.6 1043.6 167.839 1043.6 170.6C1043.6 173.362 1045.84 175.6 1048.6 175.6Z" stroke="#63A4FF" stroke-width="0.6"/>
<path opacity="0.67" d="M1074.6 175C1076.81 175 1078.6 173.209 1078.6 171C1078.6 168.791 1076.81 167 1074.6 167C1072.39 167 1070.6 168.791 1070.6 171C1070.6 173.209 1072.39 175 1074.6 175Z" stroke="#63A4FF" stroke-width="0.6"/>
<path opacity="0.78" d="M1089.8 193.1C1090.9 193.1 1091.8 192.205 1091.8 191.1C1091.8 189.996 1090.9 189.1 1089.8 189.1C1088.7 189.1 1087.8 189.996 1087.8 191.1C1087.8 192.205 1088.7 193.1 1089.8 193.1Z" stroke="#63A4FF" stroke-width="0.6"/>
<path opacity="0.74" d="M1172.9 231.6C1174 231.6 1174.9 230.705 1174.9 229.6C1174.9 228.496 1174 227.6 1172.9 227.6C1171.8 227.6 1170.9 228.496 1170.9 229.6C1170.9 230.705 1171.8 231.6 1172.9 231.6Z" stroke="#63A4FF" stroke-width="0.6"/>
<path opacity="0.55" d="M1114.9 237.9H1140.9" stroke="#9DC7FE" stroke-width="0.6"/>
<path opacity="0.31" d="M1161.2 235.9H1175.2" stroke="#9DC7FE" stroke-width="0.6"/>
<path opacity="0.35" d="M1159.1 185.6V199.6" stroke="#63A4FF" stroke-width="0.6"/>
<path opacity="0.33" d="M1129.9 237.7V263.7" stroke="#63A4FF" stroke-width="0.6"/>
<path opacity="0.48" d="M1157.7 214.1V220.1" stroke="#9DC7FE" stroke-width="0.6"/>
<path opacity="0.55" d="M1044 241.7H1070" stroke="#63A4FF" stroke-width="0.6"/>
<path opacity="0.77" d="M1054.2 213.9V223.9" stroke="#63A4FF" stroke-width="0.6"/>
<path opacity="0.63" d="M1164.7 140.7V146.7" stroke="#9DC7FE" stroke-width="0.6"/>
<path opacity="0.64" d="M1067.1 254.7V280.7" stroke="#63A4FF" stroke-width="0.6"/>
<path opacity="0.41" d="M1085.2 243.7H1099.2" stroke="#63A4FF" stroke-width="0.6"/>
<path opacity="0.31" d="M1174.1 214.5V224.5" stroke="#9DC7FE" stroke-width="0.6"/>
<path opacity="0.58" d="M1160.3 166.2H1158.3V168.2H1160.3V166.2Z" fill="#9DC7FE"/>
<path opacity="0.86" d="M1073.1 174.3H1070.6V176.8H1073.1V174.3Z" fill="#9DC7FE"/>
<path opacity="0.76" d="M1077 180.5H1075V182.5H1077V180.5Z" fill="#9DC7FE"/>
<path opacity="0.87" d="M1108.6 161.8H1106.1V164.3H1108.6V161.8Z" fill="#63A4FF"/>
<path opacity="0.48" d="M1155.3 153H1152.8V155.5H1155.3V153Z" fill="#9DC7FE"/>
<path opacity="0.65" d="M1032.2 222.7H1030.7V224.2H1032.2V222.7Z" fill="#63A4FF"/>
<path opacity="0.6" d="M1069.8 218.9H1067.8V220.9H1069.8V218.9Z" fill="#63A4FF"/>
<path opacity="0.7" d="M1124.6 227.9H1122.6V229.9H1124.6V227.9Z" fill="#63A4FF"/>
<path opacity="0.84" d="M1205.2 31.8999H1197.2V35.8999H1205.2V31.8999Z" fill="#63A4FF"/>
<path opacity="0.59" d="M1068.1 265.2H1060.1V273.2H1068.1V265.2Z" stroke="#9DC7FE" stroke-width="0.7"/>
<path opacity="0.82" d="M1156.2 47.8999C1158.96 47.8999 1161.2 45.6613 1161.2 42.8999C1161.2 40.1385 1158.96 37.8999 1156.2 37.8999C1153.44 37.8999 1151.2 40.1385 1151.2 42.8999C1151.2 45.6613 1153.44 47.8999 1156.2 47.8999Z" stroke="#63A4FF" stroke-width="1.5"/>
<path opacity="0.55" d="M1210 80H1265" stroke="#0541E9" stroke-width="0.8"/>
<path d="M1245 263C1271.51 263 1293 241.51 1293 215C1293 188.49 1271.51 167 1245 167C1218.49 167 1197 188.49 1197 215C1197 241.51 1218.49 263 1245 263Z" stroke="#0541E9" stroke-width="6"/>
<path d="M1110 281C1118.84 281 1126 273.837 1126 265C1126 256.163 1118.84 249 1110 249C1101.16 249 1094 256.163 1094 265C1094 273.837 1101.16 281 1110 281Z" stroke="#0034C3" stroke-width="2.5"/>
<path d="M1030 80H990V120H1030V80Z" stroke="#0541E9" stroke-width="2.5"/>
<path d="M1075 155H1095" stroke="#0541E9" stroke-width="1.5" stroke-linecap="square"/>
<path d="M1085 145V165" stroke="#0541E9" stroke-width="1.5" stroke-linecap="square"/>
<path d="M985 30H1010" stroke="#0541E9" stroke-width="1.5" stroke-linecap="square"/>
<path d="M985 30V55" stroke="#0541E9" stroke-width="1.5" stroke-linecap="square"/>
<path d="M1175 295H1200" stroke="#0541E9" stroke-width="1.5" stroke-linecap="square"/>
<path d="M1200 270V295" stroke="#0541E9" stroke-width="1.5" stroke-linecap="square"/>
<path d="M1169 120H1163V126H1169V120Z" fill="#0541E9"/>
<path d="M1140 100H1172" stroke="#0541E9" stroke-width="2" stroke-linecap="square"/>
<path d="M1145 95L1140 100L1145 105" stroke="#0541E9" stroke-width="2" stroke-linecap="square"/>
<path d="M1175 74C1179.97 74 1184 69.9706 1184 65C1184 60.0294 1179.97 56 1175 56C1170.03 56 1166 60.0294 1166 65C1166 69.9706 1170.03 74 1175 74Z" stroke="#2374FF" stroke-width="2"/>
<path d="M1238 138H1230V146H1238V138Z" fill="#0541E9"/>
<path d="M1064 228H1058V234H1064V228Z" fill="#0034C3"/>
<path d="M950 265H945V270H950V265Z" fill="#0541E9"/>
<path d="M1218 92H1232" stroke="#0541E9" stroke-width="1.2" stroke-linecap="square"/>
<path d="M1225 85V99" stroke="#0541E9" stroke-width="1.2" stroke-linecap="square"/>
<path d="M1024 180H1036" stroke="#0541E9" stroke-width="1.3"/>
<path d="M1100 290V302" stroke="#0541E9" stroke-width="1.3"/>
<path d="M1185 270V282" stroke="#0541E9" stroke-width="1.3"/>
<path d="M996 218H978V232H996V218Z" stroke="#0541E9" stroke-width="1.3"/>
<path d="M977 164.3H974.5V166.8H977V164.3Z" fill="#0541E9"/>
<path d="M965.7 250.9H963.2V253.4H965.7V250.9Z" fill="#0541E9"/>
</g>
<defs>
<linearGradient id="paint0_linear_70_957" x1="0" y1="0" x2="1265" y2="0" gradientUnits="userSpaceOnUse">
<stop offset="0.7154" stop-color="white" stop-opacity="0"/>
<stop offset="0.7589" stop-color="white"/>
</linearGradient>
</defs>
</svg>
